<svg width="81" height="56" viewBox="0 0 81 56" fill="none" xmlns="http://www.w3.org/2000/svg">
<path d="M2.27626 11.0018C2.34514 11.0015 2.34514 11.0015 2.41542 11.0012C2.56935 11.0007 2.72326 11.0012 2.87719 11.0018C2.98911 11.0016 3.10104 11.0014 3.21296 11.0011C3.48928 11.0006 3.76558 11.0008 4.04189 11.0012C4.37521 11.0017 4.70852 11.0014 5.04184 11.001C5.66476 11.0004 6.28767 11.0004 6.91059 11.0008C7.5419 11.0012 8.1732 11.0013 8.80451 11.001C8.86431 11.0009 8.86431 11.0009 8.92531 11.0009C9.08768 11.0008 9.25005 11.0007 9.41242 11.0007C10.925 10.9999 12.4376 10.9998 13.9501 11.0002C13.995 11.0003 14.0398 11.0003 14.086 11.0003C14.1309 11.0003 14.1758 11.0003 14.222 11.0003C15.5892 11.0007 16.9564 11.0008 18.3236 11.0006C18.4151 11.0006 18.5066 11.0006 18.5982 11.0006C18.9659 11.0005 19.3336 11.0005 19.7013 11.0004C20.7293 11.0003 21.7573 11.0002 22.7853 11.0002C22.8321 11.0002 22.879 11.0002 22.9272 11.0002C24.4192 11.0001 25.9112 11.0003 27.4032 11.0006C27.4758 11.0006 27.4758 11.0006 27.5499 11.0006C28.3359 11.0008 29.122 11.001 29.908 11.0011C33.0255 11.0018 36.143 11.0018 39.2605 11.0011C40.0461 11.0009 40.8317 11.0008 41.6172 11.0006C41.6656 11.0006 41.714 11.0006 41.7638 11.0006C43.2542 11.0002 44.7446 11.0001 46.235 11.0002C46.3052 11.0002 46.3052 11.0002 46.3768 11.0002C47.4037 11.0002 48.4305 11.0003 49.4574 11.0005C49.8248 11.0005 50.1923 11.0005 50.5597 11.0006C50.6511 11.0006 50.7425 11.0006 50.8339 11.0006C52.2007 11.0008 53.5676 11.0006 54.9344 11.0003C55.0016 11.0003 55.0016 11.0003 55.0702 11.0002C55.115 11.0002 55.1597 11.0002 55.2058 11.0002C56.714 10.9998 58.2222 11 59.7305 11.0007C59.8923 11.0008 60.0542 11.0009 60.2161 11.001C60.2558 11.001 60.2956 11.001 60.3365 11.001C60.9661 11.0013 61.5958 11.0011 62.2254 11.0007C62.8442 11.0003 63.463 11.0005 64.0818 11.0011C64.413 11.0015 64.7441 11.0016 65.0753 11.0011C65.3763 11.0006 65.6773 11.0008 65.9784 11.0015C66.0868 11.0017 66.1952 11.0016 66.3037 11.0012C66.4507 11.0008 66.5976 11.0012 66.7446 11.0018C66.7865 11.0015 66.8284 11.0011 66.8715 11.0008C67.3361 11.0049 67.7022 11.1284 68.0612 11.4209C68.1276 11.4728 68.1941 11.5246 68.2606 11.5764C68.2946 11.6031 68.3287 11.6298 68.3637 11.6574C68.5371 11.7914 68.7152 11.9189 68.8933 12.0465C68.9661 12.0989 69.0388 12.1513 69.1116 12.2036C69.1845 12.256 69.2574 12.3084 69.3303 12.3608C69.8095 12.7055 70.287 13.0525 70.7619 13.4032C71.1605 13.6974 71.5622 13.9871 71.9643 14.2764C72.4435 14.6213 72.921 14.9681 73.3959 15.3189C73.7945 15.613 74.1962 15.9027 74.5983 16.1921C75.0775 16.5369 75.555 16.8837 76.0299 17.2345C76.3931 17.5026 76.759 17.7669 77.1253 18.0307C77.3408 18.1859 77.556 18.3414 77.7712 18.497C77.9501 18.6262 78.1291 18.7553 78.3082 18.8843C78.4508 18.9869 78.5931 19.0898 78.7353 19.1929C78.8911 19.3059 79.0476 19.4178 79.2045 19.5293C79.2864 19.5882 79.3684 19.6471 79.4503 19.7061C79.4883 19.7328 79.5264 19.7596 79.5656 19.7872C79.8354 19.9826 80.0453 20.1773 80.1537 20.5023C80.1584 20.6316 80.1604 20.7597 80.1601 20.8891C80.1602 20.9292 80.1603 20.9693 80.1605 21.0106C80.1608 21.146 80.1608 21.2815 80.1607 21.4169C80.1609 21.5146 80.1611 21.6122 80.1613 21.7099C80.1618 21.9791 80.1619 22.2483 80.1621 22.5175C80.1622 22.8075 80.1627 23.0975 80.1631 23.3875C80.164 24.0552 80.1645 24.7228 80.1649 25.3905C80.1651 25.7204 80.1654 26.0502 80.1656 26.3801C80.1665 27.509 80.1672 28.638 80.1675 29.7669C80.1676 29.8378 80.1676 29.9087 80.1676 29.9796C80.1676 30.0323 80.1676 30.0323 80.1676 30.0861C80.1677 30.2642 80.1678 30.4423 80.1678 30.6204C80.1678 30.6558 80.1678 30.6911 80.1679 30.7275C80.1682 31.8737 80.1694 33.0198 80.1709 34.166C80.1726 35.3775 80.1735 36.589 80.1737 37.8005C80.1737 37.9334 80.1737 38.0664 80.1737 38.1994C80.1737 38.2321 80.1737 38.2649 80.1737 38.2986C80.1739 38.8257 80.1746 39.3528 80.1756 39.8799C80.1766 40.4097 80.1768 40.9395 80.1764 41.4692C80.1761 41.7563 80.1762 42.0433 80.1772 42.3304C80.178 42.5931 80.178 42.8558 80.1772 43.1185C80.1771 43.2136 80.1773 43.3087 80.1779 43.4038C80.1786 43.533 80.1781 43.6622 80.1774 43.7914C80.1781 43.8469 80.1781 43.8469 80.1789 43.9035C80.1746 44.2398 80.0653 44.4883 79.8274 44.7262C79.5046 44.9477 79.2606 44.9958 78.8771 44.9927C78.8081 44.993 78.8081 44.993 78.7377 44.9933C78.5829 44.9939 78.4281 44.9933 78.2733 44.9929C78.161 44.993 78.0487 44.9932 77.9364 44.9935C77.6587 44.9941 77.3811 44.9939 77.1034 44.9935C76.7685 44.9931 76.4337 44.9935 76.0988 44.9939C75.473 44.9946 74.8471 44.9947 74.2213 44.9943C73.5869 44.994 72.9526 44.994 72.3182 44.9944C72.2782 44.9944 72.2381 44.9944 72.1969 44.9945C72.0338 44.9946 71.8707 44.9947 71.7076 44.9948C70.0513 44.9958 68.3949 44.9959 66.7385 44.9956C66.5096 44.9956 66.2806 44.9955 66.0517 44.9955C66.0062 44.9955 65.9607 44.9955 65.9139 44.9955C64.9066 44.9954 63.8994 44.9955 62.8921 44.9957C62.7543 44.9957 62.6165 44.9958 62.4787 44.9958C62.1093 44.9959 61.7399 44.9959 61.3705 44.996C58.7914 44.9965 56.2122 44.9967 53.6331 44.9964C53.5602 44.9964 53.5602 44.9964 53.4857 44.9963C52.9434 44.9963 52.4012 44.9962 51.8589 44.9961C51.7854 44.9961 51.7854 44.9961 51.7105 44.9961C51.3131 44.996 51.3131 44.996 51.1165 44.996C47.9843 44.9955 44.8521 44.9959 41.7199 44.997C40.9307 44.9973 40.1414 44.9975 39.3522 44.9978C39.2793 44.9978 39.2793 44.9978 39.2049 44.9979C37.7076 44.9984 36.2104 44.9986 34.7131 44.9987C34.6661 44.9987 34.6191 44.9987 34.5707 44.9987C33.5391 44.9987 32.5075 44.9986 31.4759 44.9985C31.1068 44.9985 30.7377 44.9985 30.3686 44.9984C30.2768 44.9984 30.185 44.9984 30.0931 44.9984C28.629 44.9983 27.1648 44.9987 25.7006 44.9993C24.1853 45 22.67 45 21.1547 44.9992C20.9921 44.9991 20.8294 44.999 20.6668 44.9989C20.6269 44.9989 20.587 44.9989 20.5459 44.9989C19.9132 44.9986 19.2805 44.9989 18.6478 44.9995C18.0261 45.0001 17.4044 45 16.7827 44.9992C16.45 44.9987 16.1172 44.9986 15.7845 44.9994C15.4821 45 15.1796 44.9998 14.8772 44.9989C14.7682 44.9987 14.6592 44.9988 14.5502 44.9993C14.4026 45 14.255 44.9994 14.1074 44.9986C14.0652 44.9991 14.023 44.9995 13.9795 45C13.5115 44.9945 13.1806 44.7879 12.8248 44.5017C12.7535 44.4458 12.6821 44.39 12.6107 44.3343C12.5558 44.2912 12.5558 44.2912 12.4998 44.2473C12.3152 44.1043 12.1271 43.9663 11.9388 43.8282C11.9009 43.8004 11.863 43.7726 11.824 43.744C11.7471 43.6875 11.6701 43.631 11.5931 43.5746C11.4028 43.435 11.2128 43.2948 11.0229 43.1548C10.947 43.0989 10.8712 43.043 10.7954 42.9872C10.6437 42.8754 10.4921 42.7637 10.3404 42.6519C10.2841 42.6104 10.2841 42.6104 10.2266 42.5681C10.1509 42.5123 10.0752 42.4565 9.9995 42.4007C9.80821 42.2597 9.61687 42.1188 9.42542 41.9781C9.03943 41.6942 8.65448 41.4091 8.27157 41.121C7.91223 40.8511 7.55001 40.585 7.18789 40.3188C6.95962 40.1509 6.73157 39.9827 6.50348 39.8146C6.31218 39.6736 6.12083 39.5327 5.92937 39.392C5.54338 39.1081 5.15843 38.8229 4.77552 38.5349C4.41617 38.2649 4.05396 37.9989 3.69184 37.7326C3.46367 37.5648 3.23571 37.3968 3.00774 37.2287C2.81473 37.0864 2.6216 36.9443 2.42827 36.8025C2.23817 36.663 2.04844 36.523 1.859 36.3826C1.79266 36.3335 1.72619 36.2846 1.65958 36.2359C0.974924 35.7353 0.974924 35.7353 0.84599 35.3485C0.841282 35.2202 0.839317 35.093 0.839562 34.9647C0.839393 34.905 0.839393 34.905 0.83922 34.8442C0.838899 34.7098 0.838922 34.5755 0.838941 34.4411C0.838784 34.3443 0.838605 34.2474 0.838408 34.1506C0.837927 33.8835 0.83775 33.6165 0.837623 33.3495C0.837436 33.0618 0.836978 32.7742 0.836559 32.4865C0.835657 31.8243 0.835169 31.162 0.834765 30.4998C0.834564 30.1726 0.834314 29.8454 0.834062 29.5182C0.833205 28.3984 0.832487 27.2786 0.832131 26.1588C0.832108 26.0885 0.832085 26.0182 0.832063 25.9479C0.832051 25.913 0.83204 25.8782 0.832028 25.8422C0.831971 25.6656 0.831912 25.4889 0.831854 25.3122C0.831842 25.2772 0.831831 25.2421 0.831819 25.206C0.831441 24.0691 0.830319 22.9323 0.828762 21.7954C0.82712 20.5937 0.826176 19.3921 0.826018 18.1904C0.825998 18.0585 0.825975 17.9266 0.82595 17.7947C0.825944 17.7622 0.825938 17.7297 0.825932 17.6963C0.82582 17.1734 0.82507 16.6506 0.82409 16.1277C0.82312 15.6023 0.822873 15.0768 0.823312 14.5513C0.82353 14.2666 0.823436 13.9819 0.82251 13.6972C0.821669 13.4366 0.82171 13.176 0.822457 12.9154C0.822571 12.8211 0.822361 12.7267 0.821795 12.6324C0.821073 12.5042 0.821532 12.3761 0.822284 12.248C0.821795 12.2113 0.821305 12.1746 0.820801 12.1368C0.824701 11.8327 0.923267 11.5924 1.11444 11.3556C1.46411 11.0629 1.82988 10.9982 2.27626 11.0018ZM1.3249 11.7861C1.23837 12.0331 1.21541 12.2605 1.21693 12.5198C1.21678 12.5588 1.21662 12.5978 1.21647 12.638C1.21607 12.7686 1.21635 12.8993 1.21663 13.0299C1.21649 13.1246 1.2163 13.2192 1.21608 13.3139C1.21559 13.5739 1.21569 13.834 1.2159 14.094C1.21601 14.3745 1.21558 14.6549 1.21522 14.9354C1.21461 15.4848 1.21453 16.0343 1.21464 16.5837C1.21472 17.0302 1.21464 17.4767 1.21444 17.9232C1.21441 17.9874 1.21438 18.0515 1.21435 18.1157C1.21431 18.2124 1.21426 18.309 1.21422 18.4057C1.21382 19.3045 1.21361 20.2032 1.21381 21.102C1.21382 21.1358 1.21382 21.1697 1.21383 21.2046C1.21387 21.3763 1.21391 21.5481 1.21395 21.7198C1.21396 21.7539 1.21397 21.788 1.21398 21.8231C1.21399 21.8921 1.21401 21.961 1.21403 22.03C1.21428 23.1032 1.2139 24.1765 1.21302 25.2497C1.21203 26.4555 1.21151 27.6614 1.21171 28.8672C1.21172 28.9957 1.21174 29.1243 1.21176 29.2529C1.21176 29.2845 1.21177 29.3162 1.21177 29.3488C1.21183 29.8267 1.21151 30.3046 1.211 30.7825C1.21043 31.326 1.21036 31.8695 1.21094 32.413C1.21123 32.6903 1.21128 32.9677 1.2107 33.245C1.21018 33.4989 1.21033 33.7527 1.211 34.0066C1.21113 34.0984 1.21101 34.1903 1.21063 34.2822C1.21015 34.407 1.21055 34.5319 1.21117 34.6567C1.21082 34.6924 1.21047 34.7281 1.21011 34.7649C1.21298 35.0429 1.26512 35.3119 1.44542 35.5336C1.48392 35.5628 1.48392 35.5628 1.5232 35.5925C1.55268 35.6154 1.58216 35.6383 1.61253 35.6619C1.64404 35.6849 1.67556 35.7079 1.70803 35.7317C1.74029 35.7562 1.77254 35.7807 1.80578 35.8059C1.9121 35.886 2.01943 35.9646 2.12708 36.0429C2.20815 36.1023 2.28921 36.1617 2.37027 36.221C2.41142 36.2511 2.45257 36.2812 2.49496 36.3121C2.688 36.4534 2.88045 36.5954 3.07293 36.7374C3.30201 36.9062 3.53114 37.075 3.76043 37.2436C4.14641 37.5275 4.53137 37.8126 4.91428 38.1006C5.27362 38.3706 5.63583 38.6367 5.99796 38.9029C6.1884 39.043 6.37868 39.1832 6.56898 39.3235C6.64481 39.3794 6.72063 39.4352 6.79646 39.4911C6.94812 39.6029 7.09977 39.7146 7.25143 39.8263C7.28897 39.854 7.32652 39.8817 7.3652 39.9102C7.44092 39.966 7.51663 40.0218 7.59234 40.0776C7.78362 40.2185 7.97496 40.3594 8.16641 40.5002C8.5524 40.7841 8.93735 41.0692 9.32026 41.3572C9.67961 41.6272 10.0418 41.8933 10.4039 42.1595C10.6322 42.3274 10.8603 42.4955 11.0884 42.6637C11.2796 42.8046 11.471 42.9455 11.6625 43.0863C12.0262 43.3539 12.3893 43.6223 12.7499 43.8941C13.3669 44.3934 13.3669 44.3934 14.1131 44.5498C14.1587 44.5499 14.2044 44.55 14.2514 44.55C14.4064 44.5503 14.5614 44.5502 14.7165 44.55C14.8284 44.5501 14.9403 44.5503 15.0522 44.5504C15.2974 44.5506 15.5426 44.5507 15.7877 44.5507C16.1548 44.5506 16.5218 44.5509 16.8888 44.5511C17.5142 44.5516 18.1396 44.5518 18.765 44.5519C19.3992 44.552 20.0333 44.5522 20.6675 44.5525C20.7275 44.5526 20.7275 44.5526 20.7887 44.5526C20.9515 44.5527 21.1144 44.5528 21.2773 44.5529C23.2533 44.5539 25.2294 44.5544 27.2054 44.5548C27.846 44.555 28.4867 44.5551 29.1273 44.5553C29.1951 44.5553 29.1951 44.5553 29.2642 44.5554C29.447 44.5554 29.6297 44.5555 29.8125 44.5555C32.9384 44.5564 36.0644 44.5571 39.1904 44.5575C39.436 44.5575 39.6816 44.5575 39.9272 44.5575C40.0003 44.5576 40.0003 44.5576 40.0749 44.5576C40.5685 44.5576 41.0621 44.5577 41.5558 44.5577C41.6548 44.5577 41.7537 44.5578 41.8527 44.5578C45.0324 44.5581 48.212 44.5592 51.3917 44.5608C53.6759 44.5619 55.9601 44.5629 58.2443 44.5633C58.3148 44.5633 58.3148 44.5633 58.3866 44.5633C59.4172 44.5634 60.4478 44.5635 61.4783 44.5636C61.893 44.5636 62.3076 44.5636 62.7222 44.5637C62.7903 44.5637 62.7903 44.5637 62.8598 44.5637C64.323 44.5638 65.7863 44.5644 67.2495 44.5654C68.7229 44.5664 70.1962 44.5668 71.6696 44.5663C71.873 44.5663 72.0764 44.5662 72.2798 44.5662C72.3396 44.5661 72.3396 44.5661 72.4006 44.5661C73.0331 44.566 73.6656 44.5665 74.2981 44.5672C74.9194 44.568 75.5406 44.568 76.1619 44.5674C76.4945 44.567 76.8271 44.567 77.1597 44.5678C77.4619 44.5685 77.764 44.5684 78.0661 44.5676C78.1752 44.5674 78.2842 44.5676 78.3933 44.5681C78.5407 44.5688 78.688 44.5683 78.8354 44.5675C78.8779 44.5679 78.9204 44.5684 78.9642 44.5689C79.2235 44.5659 79.3753 44.5278 79.579 44.3521C79.7665 44.1129 79.7983 43.8549 79.7947 43.5601C79.7949 43.5206 79.7952 43.481 79.7955 43.4403C79.7962 43.308 79.7955 43.1759 79.7949 43.0436C79.7951 42.9478 79.7954 42.8519 79.7958 42.756C79.7966 42.4928 79.7962 42.2296 79.7956 41.9664C79.7952 41.6824 79.7958 41.3985 79.7964 41.1145C79.7972 40.5905 79.7971 40.0664 79.7966 39.5424C79.7961 39.0583 79.796 38.5741 79.7962 38.09C79.7962 38.0579 79.7962 38.0258 79.7962 37.9927C79.7963 37.8623 79.7964 37.7319 79.7964 37.6015C79.797 36.3786 79.7965 35.1556 79.7954 33.9326C79.7945 32.8462 79.7946 31.7597 79.7955 30.6733C79.7966 29.4526 79.797 28.2318 79.7964 27.0111C79.7963 26.8809 79.7963 26.7508 79.7962 26.6206C79.7962 26.5886 79.7962 26.5566 79.7961 26.5235C79.7959 26.0397 79.7962 25.5559 79.7967 25.0721C79.7972 24.522 79.7971 23.9718 79.796 23.4217C79.7955 23.1409 79.7953 22.8602 79.796 22.5795C79.7965 22.3225 79.7962 22.0656 79.7952 21.8086C79.795 21.7156 79.7951 21.6226 79.7956 21.5296C79.7962 21.4032 79.7956 21.2769 79.7947 21.1506C79.7951 21.1144 79.7956 21.0783 79.796 21.041C79.7918 20.7393 79.6989 20.4831 79.4874 20.2634C79.44 20.2303 79.44 20.2303 79.3915 20.1964C79.3376 20.1577 79.3376 20.1577 79.2825 20.1182C79.244 20.0918 79.2056 20.0655 79.1659 20.0383C79.1256 20.0097 79.0853 19.981 79.0438 19.9515C78.9601 19.8921 78.8762 19.8331 78.7921 19.7743C78.6059 19.6439 78.4221 19.5102 78.238 19.3768C78.1667 19.3254 78.0954 19.2741 78.024 19.2227C77.7989 19.0601 77.5754 18.8953 77.3521 18.7303C76.9154 18.4077 76.4757 18.0896 76.0351 17.7725C75.5559 17.4276 75.0783 17.0808 74.6035 16.73C74.2049 16.4359 73.8031 16.1462 73.401 15.8568C72.9219 15.512 72.4443 15.1652 71.9695 14.8144C71.5709 14.5202 71.1691 14.2306 70.767 13.9412C70.3264 13.6241 69.8867 13.3059 69.45 12.9834C69.0466 12.6854 68.641 12.3907 68.2337 12.0981C68.135 12.027 68.0367 11.9553 67.9385 11.8836C67.8786 11.8401 67.8187 11.7966 67.7589 11.7532C67.7322 11.7335 67.7056 11.7139 67.6781 11.6936C67.3715 11.4721 67.1428 11.4369 66.7742 11.4388C66.7285 11.4387 66.6828 11.4385 66.6357 11.4384C66.4814 11.438 66.3271 11.4383 66.1727 11.4387C66.061 11.4386 65.9492 11.4384 65.8375 11.4382C65.5608 11.4378 65.2842 11.4379 65.0075 11.4382C64.674 11.4385 64.3404 11.4382 64.0069 11.4379C63.3834 11.4374 62.76 11.4373 62.1366 11.4375C61.5046 11.4377 60.8726 11.4377 60.2406 11.4374C60.2007 11.4374 60.1608 11.4374 60.1197 11.4373C59.9573 11.4373 59.7949 11.4372 59.6325 11.4371C57.9825 11.4364 56.3325 11.4362 54.6825 11.4364C54.4544 11.4364 54.2263 11.4364 53.9982 11.4364C53.9303 11.4364 53.9303 11.4364 53.8609 11.4364C52.8576 11.4365 51.8544 11.4364 50.8511 11.4362C50.6221 11.4362 50.3931 11.4361 50.1642 11.4361C50.0723 11.4361 49.9804 11.4361 49.8885 11.436C49.8202 11.436 49.8201 11.436 49.7504 11.436C49.6583 11.436 49.5662 11.436 49.474 11.436C46.8592 11.4356 44.2443 11.4353 41.6295 11.4355C41.581 11.4355 41.5326 11.4355 41.4827 11.4356C40.9425 11.4356 40.4023 11.4356 39.8622 11.4357C39.789 11.4357 39.789 11.4357 39.7144 11.4357C39.4185 11.4357 39.4185 11.4357 39.1227 11.4357C36.0026 11.436 32.8825 11.4357 29.7625 11.4348C28.9763 11.4345 28.1901 11.4343 27.4038 11.4341C27.3554 11.4341 27.307 11.4341 27.2572 11.434C25.7658 11.4336 24.2745 11.4334 22.7832 11.4334C22.7364 11.4334 22.6896 11.4334 22.6413 11.4334C21.614 11.4334 20.5866 11.4334 19.5593 11.4334C19.1917 11.4335 18.8242 11.4335 18.4566 11.4335C18.3651 11.4335 18.2737 11.4335 18.1822 11.4335C16.7237 11.4336 15.2651 11.4332 13.8065 11.4327C12.2972 11.4321 10.7878 11.4321 9.27844 11.4327C9.11651 11.4327 8.95457 11.4328 8.79264 11.4328C8.73302 11.4329 8.73302 11.4329 8.6722 11.4329C8.0418 11.4331 7.4114 11.4328 6.781 11.4323C6.16178 11.4319 5.54256 11.4319 4.92334 11.4326C4.59182 11.4329 4.26031 11.4329 3.9288 11.4324C3.62765 11.4319 3.32652 11.432 3.02537 11.4327C2.91668 11.4328 2.80799 11.4327 2.6993 11.4323C2.55243 11.4319 2.40557 11.4323 2.25869 11.4329C2.21632 11.4325 2.17394 11.4322 2.13027 11.4318C1.79896 11.4348 1.53635 11.5142 1.3249 11.7861Z" fill="white"/>
<path d="M25.7495 20.3586C33.9568 20.3586 33.9568 20.3586 35.1841 21.5559C35.8164 22.2159 36.0244 23.0387 36.0148 23.9316C35.9901 24.7925 35.6979 25.565 35.0817 26.1748C34.8761 26.3582 34.6585 26.4995 34.4178 26.6324C34.3753 26.6566 34.3327 26.6808 34.2889 26.7057C34.1887 26.7622 34.088 26.8173 33.9868 26.8718C34.0429 26.8892 34.099 26.9067 34.1568 26.9246C35.1535 27.2404 35.9088 27.6937 36.4203 28.6408C36.8451 29.5406 36.8235 30.6955 36.4951 31.625C36.1226 32.4532 35.4547 33.0151 34.6292 33.3613C33.8011 33.6674 32.984 33.7839 32.1052 33.779C32.0341 33.779 31.9631 33.779 31.892 33.7791C31.7041 33.7791 31.5163 33.7785 31.3284 33.7779C31.1512 33.7773 30.9739 33.7773 30.7967 33.7772C30.2807 33.7767 29.7646 33.7754 29.2486 33.7741C28.0939 33.7722 26.9392 33.7702 25.7495 33.7682C25.7495 29.343 25.7495 24.9179 25.7495 20.3586ZM26.8031 21.2686C26.8031 23.007 26.8031 24.7455 26.8031 26.5366C27.6299 26.5396 28.4566 26.5425 29.3084 26.5456C29.6973 26.5475 29.6973 26.5475 30.094 26.5495C30.3302 26.55 30.3302 26.55 30.5664 26.5503C30.6701 26.5505 30.7738 26.551 30.8775 26.5518C32.1182 26.5601 33.4076 26.4853 34.3649 25.5941C34.8723 25.0349 34.9834 24.3735 34.9613 23.6455C34.9262 23.03 34.6515 22.455 34.203 22.0322C33.7777 21.7033 33.2648 21.4795 32.7416 21.3644C32.6872 21.3523 32.6872 21.3523 32.6317 21.34C32.0579 21.2328 31.4767 21.2566 30.8954 21.2592C30.7905 21.2594 30.6855 21.2595 30.5806 21.2595C30.1945 21.26 29.8083 21.2613 29.4222 21.2626C28.5579 21.2646 27.6936 21.2665 26.8031 21.2686ZM26.8031 27.4465C26.8031 29.2482 26.8031 31.0499 26.8031 32.9061C27.8224 32.9104 27.8224 32.9104 28.8417 32.9133C29.2066 32.9141 29.5716 32.9151 29.9365 32.917C30.257 32.9186 30.5775 32.9194 30.8979 32.9197C31.0194 32.92 31.1409 32.9205 31.2623 32.9213C32.5335 32.9292 34.0332 32.9032 35.0344 31.9932C35.5982 31.3869 35.6919 30.663 35.6778 29.8727C35.6534 29.2602 35.4138 28.7082 34.9715 28.2756C33.9235 27.4323 32.576 27.432 31.3023 27.4372C31.1722 27.4374 31.0422 27.4375 30.9122 27.4376C30.6065 27.4379 30.3009 27.4387 29.9953 27.4396C29.6126 27.4408 29.23 27.4413 28.8473 27.4419C28.1659 27.4428 27.4845 27.4447 26.8031 27.4465Z" fill="white"/>
<path d="M66.5527 20.9813C66.6063 21.0074 66.66 21.0335 66.7153 21.0604C68.2743 21.8616 69.4099 23.2573 69.953 24.9197C70.5072 26.6956 70.337 28.6857 69.4971 30.342C69.1856 30.9274 68.786 31.4277 68.3247 31.9005C68.294 31.9341 68.2633 31.9678 68.2317 32.0024C67.2079 33.097 65.5454 33.7854 64.0611 33.8695C63.9606 33.8726 63.8602 33.8744 63.7597 33.8754C63.7227 33.8759 63.6856 33.8764 63.6475 33.8768C62.8448 33.8849 62.0647 33.8877 61.2847 33.6725C61.2285 33.6571 61.2285 33.6571 61.1713 33.6413C59.3944 33.1352 57.9646 31.9955 57.0588 30.388C56.1802 28.776 56.0335 26.7954 56.5264 25.0377C57.0406 23.3349 58.2047 21.9383 59.7527 21.0806C61.8218 19.975 64.4526 19.9578 66.5527 20.9813ZM58.6985 23.1843C57.5822 24.5286 57.1823 26.1329 57.3196 27.8583C57.4773 29.2597 58.2124 30.6477 59.2942 31.5503C59.3825 31.6198 59.4713 31.6887 59.5606 31.7568C59.5979 31.7858 59.6352 31.8148 59.6736 31.8447C60.9658 32.803 62.6614 33.1158 64.2337 32.8942C65.2935 32.7253 66.3036 32.3084 67.1274 31.6131C67.1652 31.5818 67.2029 31.5504 67.2419 31.5181C68.3465 30.5663 69.0195 29.226 69.1867 27.7818C69.2944 26.073 68.9241 24.502 67.7979 23.1843C67.4126 22.7494 67.0026 22.3853 66.5048 22.0828C66.4509 22.05 66.397 22.0171 66.3415 21.9833C63.8965 20.5599 60.5821 21.0885 58.6985 23.1843Z" fill="white"/>
<path d="M10.4718 20.3586C10.8037 20.3586 11.1356 20.3586 11.4775 20.3586C11.4779 20.4599 11.4783 20.5612 11.4787 20.6656C11.4824 21.6224 11.4866 22.5792 11.4913 23.536C11.4937 24.0278 11.4959 24.5197 11.4977 25.0115C11.4993 25.4406 11.5012 25.8697 11.5035 26.2987C11.5047 26.5256 11.5057 26.7524 11.5064 26.9793C11.507 27.1935 11.5081 27.4077 11.5095 27.622C11.5099 27.6999 11.5102 27.7778 11.5103 27.8558C11.5125 29.2999 11.7253 30.7328 12.7316 31.8405C13.4811 32.5348 14.4955 32.8565 15.5003 32.9061C15.551 32.9086 15.6017 32.9112 15.6539 32.9138C16.7728 32.9417 17.8 32.7051 18.7091 32.0441C18.7423 32.0206 18.7756 31.997 18.8099 31.9728C19.6837 31.2949 19.9929 30.0916 20.1321 29.0527C20.17 28.7165 20.1669 28.3788 20.1665 28.0409C20.1669 27.9563 20.1674 27.8717 20.168 27.7871C20.1693 27.5607 20.1697 27.3343 20.17 27.1079C20.1705 26.87 20.1717 26.6322 20.1729 26.3944C20.175 25.9454 20.1764 25.4965 20.1775 25.0476C20.1788 24.5359 20.1809 24.0242 20.183 23.5125C20.1875 22.4612 20.1909 21.4099 20.1937 20.3586C20.5414 20.3586 20.8891 20.3586 21.2473 20.3586C21.2495 21.4224 21.2512 22.4861 21.2522 23.5498C21.2527 24.0438 21.2534 24.5378 21.2545 25.0317C21.2555 25.4627 21.2561 25.8937 21.2563 26.3247C21.2564 26.5525 21.2567 26.7803 21.2574 27.0082C21.2641 29.2579 21.2641 29.2579 21.0467 30.1135C21.0313 30.1755 21.0313 30.1755 21.0155 30.2387C20.6968 31.4608 20.0143 32.5047 18.9117 33.154C18.8606 33.1828 18.8095 33.2116 18.7569 33.2414C18.7163 33.2647 18.6756 33.2881 18.6337 33.3123C17.7669 33.7779 16.8116 33.8924 15.8446 33.8849C15.7849 33.8847 15.7849 33.8847 15.7241 33.8844C15.1228 33.8812 14.5454 33.8547 13.9678 33.6724C13.9335 33.6616 13.8991 33.6508 13.8637 33.6397C12.6941 33.2597 11.7028 32.5183 11.1323 31.4138C10.6049 30.3484 10.4637 29.2651 10.4663 28.0899C10.4664 28.0053 10.4664 27.9208 10.4663 27.8363C10.4663 27.608 10.4666 27.3798 10.4669 27.1516C10.4672 26.9126 10.4673 26.6736 10.4673 26.4346C10.4675 25.9826 10.4679 25.5306 10.4683 25.0786C10.4689 24.5638 10.4691 24.049 10.4694 23.5342C10.4699 22.4757 10.4707 21.4172 10.4718 20.3586Z" fill="white"/>
<path d="M44.1873 20.3586C44.49 20.3364 44.7917 20.324 45.0952 20.3303C45.1452 20.3313 45.1952 20.3322 45.2467 20.3332C45.4146 20.3641 45.4889 20.4221 45.6091 20.5412C45.6634 20.6392 45.716 20.7381 45.7677 20.8375C45.8694 20.9832 45.9777 21.1239 46.085 21.2655C46.1435 21.345 46.2019 21.4245 46.2601 21.5042C46.4329 21.7402 46.606 21.9759 46.7794 22.2114C46.8073 22.2492 46.8352 22.2871 46.8639 22.3261C47.0401 22.5651 47.2175 22.8032 47.396 23.0405C47.7475 23.5077 48.0933 23.9791 48.4396 24.4502C48.8234 24.9721 49.2093 25.4923 49.599 26.0097C49.8138 25.8094 49.9811 25.5859 50.1528 25.3482C50.2127 25.2661 50.2726 25.184 50.3325 25.1019C50.3623 25.061 50.3921 25.0202 50.4227 24.9781C50.5458 24.81 50.6709 24.6435 50.7963 24.4772C51.0899 24.0869 51.3795 23.6937 51.6688 23.3002C51.8368 23.0718 52.0051 22.8435 52.1734 22.6153C52.3397 22.3897 52.5057 22.1639 52.671 21.9376C52.7262 21.8628 52.7818 21.7883 52.838 21.7143C52.9926 21.5095 53.1342 21.303 53.2672 21.0835C53.6952 20.4082 53.6952 20.4082 54.0075 20.3149C54.3454 20.273 54.6761 20.3014 55.0107 20.3586C54.9462 20.4957 54.8729 20.6145 54.7825 20.7359C54.7428 20.7895 54.7428 20.7895 54.7022 20.8443C54.6736 20.8825 54.6451 20.9208 54.6156 20.9602C54.5546 21.0424 54.4936 21.1246 54.4327 21.2068C54.4014 21.2488 54.3702 21.2908 54.338 21.3341C54.2204 21.4924 54.1037 21.6513 53.9869 21.8102C53.732 22.1571 53.4752 22.5024 53.2164 22.8465C52.9176 23.2442 52.6235 23.6454 52.3288 24.0462C52.0111 24.4784 51.6934 24.9106 51.371 25.3393C51.1534 25.6288 50.9369 25.9191 50.7215 26.2103C50.6786 26.2679 50.6786 26.2679 50.635 26.3267C50.6081 26.3631 50.5813 26.3994 50.5537 26.4368C50.53 26.4688 50.5063 26.5008 50.4819 26.5338C50.4054 26.6434 50.3371 26.7565 50.2695 26.8718C50.2991 26.9103 50.2991 26.9103 50.3292 26.9497C50.8229 27.5942 51.3084 28.2441 51.7881 28.8992C52.144 29.385 52.5048 29.8665 52.8709 30.3446C53.0648 30.5984 53.2535 30.8548 53.437 31.116C53.6484 31.4148 53.8727 31.7036 54.0954 31.9939C54.3371 32.31 54.572 32.6302 54.8033 32.9539C54.961 33.1741 55.1228 33.3894 55.2945 33.599C55.346 33.6723 55.346 33.6723 55.346 33.7681C55.0433 33.7903 54.7416 33.8027 54.4381 33.7963C54.3881 33.7954 54.3381 33.7945 54.2866 33.7935C54.1187 33.7626 54.0444 33.7046 53.9242 33.5855C53.8698 33.4875 53.8172 33.3886 53.7656 33.2892C53.666 33.1454 53.5597 33.0067 53.4543 32.8671C53.3959 32.7876 53.3376 32.7081 53.2793 32.6284C53.0923 32.3743 52.9009 32.1238 52.709 31.8734C52.4475 31.5321 52.1925 31.1872 51.9424 30.8375C51.742 30.5583 51.5351 30.2845 51.3261 30.0116C50.9971 29.5822 50.6744 29.1485 50.3547 28.7121C50.201 28.5024 50.0466 28.2933 49.8924 28.084C49.8356 28.007 49.7789 27.93 49.7221 27.853C49.6983 27.8207 49.6745 27.7883 49.6499 27.755C49.6331 27.7322 49.6163 27.7094 49.599 27.6859C49.4086 27.8599 49.2683 28.0632 49.1201 28.2726C48.9166 28.5573 48.7113 28.8403 48.5005 29.1197C48.2057 29.5108 47.9152 29.905 47.6251 30.2997C47.4572 30.5279 47.289 30.756 47.1209 30.9841C46.9799 31.1754 46.839 31.3667 46.6982 31.5582C46.2615 32.1521 46.2615 32.1521 46.0491 32.4361C46.0253 32.4681 46.0014 32.5 45.9769 32.5329C45.9295 32.5957 45.8816 32.6581 45.8332 32.7201C45.7084 32.8812 45.6006 33.0399 45.5043 33.2198C45.2644 33.6407 45.2644 33.6407 45.0494 33.7681C44.6417 33.8595 44.2157 33.8157 43.8042 33.7681C43.991 33.4795 44.1892 33.2052 44.4028 32.936C44.7561 32.4862 45.0951 32.0268 45.4325 31.5651C45.8111 31.0477 46.194 30.5342 46.5835 30.025C46.8796 29.6373 47.1692 29.2452 47.4574 28.8517C47.5684 28.7004 47.6797 28.5493 47.7911 28.3983C47.8466 28.3231 47.9019 28.2478 47.9572 28.1724C48.104 27.9724 48.2523 27.7739 48.4031 27.5769C48.4344 27.5355 48.4657 27.4941 48.498 27.4515C48.5584 27.3719 48.6192 27.2926 48.6806 27.2137C48.7075 27.178 48.7345 27.1423 48.7622 27.1054C48.7863 27.0741 48.8104 27.0428 48.8352 27.0105C48.8897 26.9219 48.8897 26.9219 48.8708 26.8219C48.8048 26.6592 48.6913 26.5275 48.5843 26.3899C48.5316 26.3208 48.4789 26.2517 48.4263 26.1826C48.3986 26.1464 48.371 26.1103 48.3425 26.0731C48.2026 25.8888 48.0658 25.7023 47.9288 25.5159C47.8721 25.4387 47.8153 25.3616 47.7586 25.2844C47.7303 25.246 47.7021 25.2076 47.673 25.168C47.5329 24.9775 47.3926 24.7872 47.2524 24.5969C47.1965 24.5211 47.1406 24.4453 47.0847 24.3695C47.0571 24.3319 47.0294 24.2944 47.0009 24.2557C46.4701 23.5354 45.9393 22.815 45.4086 22.0946C45.3808 22.057 45.3531 22.0194 45.3246 21.9807C45.2692 21.9055 45.2138 21.8303 45.1585 21.7551C45.0116 21.5555 44.8643 21.3564 44.7162 21.1578C44.6853 21.1162 44.6544 21.0746 44.6226 21.0318C44.5631 20.9518 44.5035 20.8719 44.4437 20.7921C44.4171 20.7562 44.3904 20.7203 44.363 20.6833C44.3394 20.6518 44.3158 20.6202 44.2916 20.5877C44.2352 20.5023 44.2352 20.5023 44.1873 20.3586Z" fill="white"/>
<path d="M40.1167 20.3586C40.4644 20.3586 40.8121 20.3586 41.1703 20.3586C41.1703 24.7838 41.1703 29.2089 41.1703 33.7682C40.8226 33.7682 40.4749 33.7682 40.1167 33.7682C40.1167 29.343 40.1167 24.9179 40.1167 20.3586Z" fill="white"/>
<path d="M63.7778 36.4506C64.0005 36.4464 64.2231 36.4421 64.4524 36.4377C64.5218 36.4358 64.5912 36.4339 64.6626 36.432C65.0328 36.4285 65.2833 36.4505 65.5941 36.6582C65.7477 36.8887 65.7318 37.1143 65.6979 37.3847C65.5941 37.5501 65.5941 37.5501 65.4903 37.6442C65.5406 37.6838 65.5909 37.7234 65.6427 37.7642C65.7716 37.8656 65.7992 37.8962 65.8535 38.0593C65.8728 38.3194 65.8597 38.474 65.6979 38.682C65.468 38.8832 65.2779 38.8959 64.9789 38.8947C64.916 38.8945 64.8532 38.8944 64.7885 38.8943C64.7086 38.8938 64.6288 38.8933 64.5465 38.8928C64.2928 38.8918 64.0392 38.8907 63.7778 38.8896C63.7778 38.0847 63.7778 37.2799 63.7778 36.4506ZM64.0892 36.7101C64.0892 36.9841 64.0892 37.2581 64.0892 37.5404C64.2481 37.5446 64.407 37.5477 64.5659 37.5501C64.6108 37.5514 64.6557 37.5527 64.7019 37.5541C64.9553 37.557 65.1312 37.5542 65.3346 37.3847C65.4532 37.2391 65.4532 37.2391 65.4351 37.0766C65.3714 36.8685 65.3146 36.821 65.127 36.7101C64.9479 36.6852 64.7724 36.6905 64.5919 36.6971C64.5436 36.6981 64.4952 36.699 64.4454 36.7C64.3267 36.7024 64.2079 36.7061 64.0892 36.7101ZM64.0892 37.7999C64.0892 38.091 64.0892 38.3821 64.0892 38.682C64.2373 38.6849 64.3854 38.6869 64.5335 38.6885C64.575 38.6894 64.6165 38.6903 64.6593 38.6912C64.9559 38.6936 65.2275 38.6757 65.487 38.5166C65.5787 38.3602 65.5638 38.2358 65.5422 38.0593C65.4453 37.9366 65.3699 37.8694 65.2308 37.7999C65.1443 37.7955 65.0576 37.7943 64.971 37.7948C64.9198 37.795 64.8686 37.7951 64.8159 37.7953C64.7355 37.7959 64.7355 37.7959 64.6535 37.7966C64.5995 37.7968 64.5456 37.7971 64.4899 37.7973C64.3564 37.7979 64.2228 37.7989 64.0892 37.7999Z" fill="white"/>
<path d="M35.1328 36.4506C35.3554 36.4464 35.5781 36.4421 35.8074 36.4377C35.8768 36.4358 35.9462 36.4339 36.0176 36.432C36.3878 36.4285 36.6383 36.4505 36.9491 36.6582C37.1027 36.8887 37.0868 37.1143 37.0528 37.3847C36.9491 37.5501 36.9491 37.5501 36.8453 37.6442C36.8956 37.6838 36.9459 37.7234 36.9977 37.7642C37.1266 37.8656 37.1541 37.8962 37.2085 38.0593C37.2278 38.3194 37.2146 38.474 37.0528 38.682C36.823 38.8832 36.6329 38.8959 36.3338 38.8947C36.271 38.8945 36.2082 38.8944 36.1435 38.8943C36.0636 38.8938 35.9837 38.8933 35.9015 38.8928C35.6478 38.8918 35.3942 38.8907 35.1328 38.8896C35.1328 38.0847 35.1328 37.2799 35.1328 36.4506ZM35.4442 36.7101C35.4442 36.9841 35.4442 37.2581 35.4442 37.5404C35.6031 37.5446 35.762 37.5477 35.9209 37.5501C35.9658 37.5514 36.0106 37.5527 36.0568 37.5541C36.3103 37.557 36.4862 37.5542 36.6896 37.3847C36.8081 37.2391 36.8081 37.2391 36.7901 37.0766C36.7264 36.8685 36.6695 36.821 36.482 36.7101C36.3028 36.6852 36.1273 36.6905 35.9469 36.6971C35.8985 36.6981 35.8502 36.699 35.8004 36.7C35.6816 36.7024 35.5629 36.7061 35.4442 36.7101ZM35.4442 37.7999C35.4442 38.091 35.4442 38.3821 35.4442 38.682C35.5923 38.6849 35.7404 38.6869 35.8885 38.6885C35.93 38.6894 35.9715 38.6903 36.0143 38.6912C36.3108 38.6936 36.5825 38.6757 36.842 38.5166C36.9337 38.3602 36.9188 38.2358 36.8972 38.0593C36.8003 37.9366 36.7248 37.8694 36.5858 37.7999C36.4993 37.7955 36.4126 37.7943 36.3259 37.7948C36.2748 37.795 36.2236 37.7951 36.1709 37.7953C36.0905 37.7959 36.0905 37.7959 36.0085 37.7966C35.9545 37.7968 35.9005 37.7971 35.8449 37.7973C35.7113 37.7979 35.5777 37.7989 35.4442 37.7999Z" fill="white"/>
<path d="M57.2938 36.5317C57.6189 36.7062 57.8277 36.9788 57.9408 37.3276C58.0186 37.6761 57.9844 38.0059 57.8095 38.3188C57.5921 38.624 57.3776 38.8193 57.0116 38.9253C56.5934 38.9751 56.2379 38.9456 55.8787 38.711C55.58 38.4721 55.4094 38.209 55.3511 37.8286C55.3322 37.4513 55.4214 37.0946 55.6752 36.808C56.1173 36.4044 56.7297 36.3078 57.2938 36.5317ZM55.87 37.0474C55.67 37.3551 55.6489 37.5904 55.6819 37.9555C55.773 38.2397 55.9573 38.4151 56.2008 38.5782C56.4828 38.6984 56.7369 38.7042 57.0311 38.6301C57.3 38.4881 57.4679 38.3109 57.6149 38.0463C57.7075 37.7067 57.6823 37.4183 57.5087 37.1109C57.363 36.9023 57.1706 36.775 56.9273 36.7101C56.5011 36.6614 56.1708 36.7308 55.87 37.0474Z" fill="white"/>
<path d="M69.7717 17.9021C70.0156 18.0791 70.2235 18.3363 70.288 18.6345C70.3349 19.0615 70.3167 19.4341 70.0486 19.7839C69.7199 20.0962 69.3989 20.2179 68.9471 20.2149C68.5842 20.1653 68.3269 20.0079 68.0851 19.736C67.8578 19.4205 67.8073 19.1113 67.8456 18.7302C67.9303 18.3869 68.0891 18.1293 68.3724 17.9161C68.8008 17.6685 69.3395 17.6567 69.7717 17.9021ZM68.2499 18.3015C68.082 18.529 68.0069 18.7772 68.0209 19.0621C68.0774 19.4067 68.2421 19.6463 68.5127 19.8615C68.7601 20.0263 68.9908 20.0402 69.2758 19.9981C69.5797 19.9308 69.7883 19.7625 69.9623 19.5085C70.1297 19.2173 70.15 18.9378 70.0665 18.6141C69.9582 18.3264 69.7891 18.1595 69.5218 18.0119C69.0412 17.8327 68.5988 17.9161 68.2499 18.3015Z" fill="white"/>
<path d="M62.0328 37.1608C62.3603 37.4493 62.3778 37.6027 62.4285 38.0591C61.9148 38.0591 61.401 38.0591 60.8717 38.0591C61.0289 38.4626 61.0289 38.4626 61.2479 38.5813C61.6014 38.6697 61.8533 38.6039 62.169 38.4224C62.2033 38.4566 62.2375 38.4909 62.2728 38.5262C62.2696 38.6267 62.2696 38.6267 62.2209 38.7338C61.9518 38.9301 61.7199 38.9633 61.3906 38.9413C61.0501 38.8695 60.8606 38.7045 60.6641 38.4224C60.5486 38.1913 60.5862 37.8947 60.6123 37.644C60.6964 37.4177 60.8132 37.2731 61.0047 37.1283C61.3493 36.9781 61.696 36.9924 62.0328 37.1608ZM61.0274 37.4883C60.904 37.6548 60.904 37.6548 60.8717 37.8516C61.2827 37.8516 61.6937 37.8516 62.1171 37.8516C62.0605 37.5683 62.0311 37.5016 61.8058 37.3327C61.4906 37.2322 61.2784 37.2612 61.0274 37.4883Z" fill="white"/>
<path d="M46.2579 37.1608C46.5854 37.4493 46.6029 37.6027 46.6536 38.0591C46.1399 38.0591 45.6261 38.0591 45.0968 38.0591C45.254 38.4626 45.254 38.4626 45.473 38.5813C45.8265 38.6697 46.0784 38.6039 46.3941 38.4224C46.4284 38.4566 46.4626 38.4909 46.4979 38.5262C46.4947 38.6267 46.4947 38.6267 46.446 38.7338C46.1769 38.9301 45.945 38.9633 45.6157 38.9413C45.2752 38.8695 45.0857 38.7045 44.8892 38.4224C44.7737 38.1913 44.8113 37.8947 44.8373 37.644C44.9215 37.4177 45.0383 37.2731 45.2298 37.1283C45.5744 36.9781 45.9211 36.9924 46.2579 37.1608ZM45.2525 37.4883C45.1291 37.6548 45.1291 37.6548 45.0968 37.8516C45.5078 37.8516 45.9188 37.8516 46.3422 37.8516C46.2856 37.5683 46.2562 37.5016 46.0309 37.3327C45.7157 37.2322 45.5035 37.2612 45.2525 37.4883Z" fill="white"/>
<path d="M67.6368 37.164C67.8594 37.3548 68.0184 37.5236 68.043 37.825C68.0478 38.1143 68.051 38.3342 67.8768 38.578C67.6501 38.7997 67.4536 38.9387 67.1301 38.9429C66.8407 38.9256 66.6495 38.8753 66.4238 38.6818C66.163 38.3857 66.1463 38.2001 66.1498 37.8104C66.1743 37.5301 66.2985 37.4021 66.4952 37.2159C66.8602 36.9725 67.249 36.9629 67.6368 37.164ZM66.5795 37.4883C66.4067 37.7691 66.4057 37.9565 66.4757 38.2667C66.5508 38.4445 66.6123 38.5128 66.7709 38.6234C66.9817 38.695 67.1482 38.6972 67.3579 38.6299C67.5619 38.5052 67.6773 38.3968 67.7471 38.1694C67.7863 37.9524 67.7613 37.7953 67.6692 37.5921C67.4835 37.3887 67.3199 37.288 67.0478 37.2708C66.8569 37.2888 66.72 37.3593 66.5795 37.4883Z" fill="white"/>
<path d="M29.6515 37.164C29.8741 37.3548 30.0331 37.5236 30.0577 37.825C30.0625 38.1143 30.0656 38.3342 29.8915 38.578C29.6647 38.7997 29.4683 38.9387 29.1447 38.9429C28.8554 38.9256 28.6642 38.8753 28.4385 38.6818C28.1776 38.3857 28.161 38.2001 28.1644 37.8104C28.189 37.5301 28.3132 37.4021 28.5098 37.2159C28.8748 36.9725 29.2637 36.9629 29.6515 37.164ZM28.5942 37.4883C28.4213 37.7691 28.4203 37.9565 28.4904 38.2667C28.5654 38.4445 28.627 38.5128 28.7855 38.6234C28.9964 38.695 29.1628 38.6972 29.3725 38.6299C29.5766 38.5052 29.692 38.3968 29.7617 38.1694C29.801 37.9524 29.7759 37.7953 29.6839 37.5921C29.4982 37.3887 29.3346 37.288 29.0624 37.2708C28.8716 37.2888 28.7346 37.3593 28.5942 37.4883Z" fill="white"/>
<path d="M37.6756 37.0732C37.7612 37.0732 37.8469 37.0732 37.9351 37.0732C37.9358 37.1062 37.9366 37.1391 37.9374 37.1731C37.9412 37.3236 37.9463 37.4741 37.9513 37.6246C37.9525 37.6764 37.9536 37.7283 37.9548 37.7817C37.9652 38.066 37.9819 38.2815 38.1426 38.5262C38.2763 38.6401 38.3893 38.6357 38.5578 38.6235C38.7544 38.5928 38.8524 38.5345 38.9729 38.3706C39.0234 38.2191 39.0348 38.1083 39.0412 37.9499C39.0434 37.8989 39.0456 37.8479 39.0478 37.7954C39.0499 37.7422 39.0519 37.6891 39.054 37.6343C39.0562 37.5806 39.0585 37.5268 39.0608 37.4715C39.0663 37.3387 39.0716 37.206 39.0767 37.0732C39.1795 37.0732 39.2822 37.0732 39.3881 37.0732C39.3881 37.6726 39.3881 38.272 39.3881 38.8895C39.2853 38.8895 39.1826 38.8895 39.0767 38.8895C39.0596 38.8381 39.0425 38.7867 39.0248 38.7338C38.9957 38.7586 38.9666 38.7833 38.9366 38.8088C38.7389 38.9424 38.5328 38.9475 38.2983 38.9414C38.0606 38.887 37.8812 38.7673 37.7275 38.5781C37.6715 38.4101 37.6697 38.2887 37.6705 38.1121C37.6707 38.0517 37.6709 37.9914 37.671 37.9292C37.6715 37.8661 37.6719 37.8031 37.6724 37.7381C37.6726 37.6745 37.6728 37.6108 37.6731 37.5452C37.6737 37.3879 37.6745 37.2306 37.6756 37.0732Z" fill="white"/>
<path d="M30.4627 37.0732C30.5483 37.0732 30.634 37.0732 30.7222 37.0732C30.7229 37.1062 30.7237 37.1391 30.7245 37.1731C30.7284 37.3236 30.7334 37.4741 30.7384 37.6246C30.7396 37.6764 30.7407 37.7283 30.7419 37.7817C30.7523 38.066 30.769 38.2815 30.9297 38.5262C31.0634 38.6401 31.1764 38.6357 31.3449 38.6235C31.5415 38.5928 31.6395 38.5345 31.76 38.3706C31.8105 38.2191 31.8219 38.1083 31.8283 37.9499C31.8305 37.8989 31.8327 37.8479 31.8349 37.7954C31.837 37.7422 31.839 37.6891 31.8411 37.6343C31.8434 37.5806 31.8456 37.5268 31.8479 37.4715C31.8534 37.3387 31.8587 37.206 31.8638 37.0732C31.9666 37.0732 32.0693 37.0732 32.1752 37.0732C32.1752 37.6726 32.1752 38.272 32.1752 38.8895C32.0724 38.8895 31.9697 38.8895 31.8638 38.8895C31.8467 38.8381 31.8296 38.7867 31.8119 38.7338C31.7828 38.7586 31.7537 38.7833 31.7237 38.8088C31.526 38.9424 31.3199 38.9475 31.0854 38.9414C30.8477 38.887 30.6683 38.7673 30.5146 38.5781C30.4586 38.4101 30.4568 38.2887 30.4576 38.1121C30.4578 38.0517 30.458 37.9914 30.4582 37.9292C30.4586 37.8661 30.459 37.8031 30.4595 37.7381C30.4597 37.6745 30.4599 37.6108 30.4602 37.5452C30.4608 37.3879 30.4616 37.2306 30.4627 37.0732Z" fill="white"/>
<path d="M59.8824 37.1349C60.0636 37.2942 60.1376 37.4493 60.1575 37.6921C60.1604 37.8731 60.1586 38.0534 60.1548 38.2344C60.1537 38.3288 60.1537 38.3288 60.1527 38.4251C60.1508 38.5799 60.1483 38.7347 60.1451 38.8895C60.0594 38.8895 59.9738 38.8895 59.8856 38.8895C59.8846 38.8563 59.8836 38.8231 59.8825 38.7888C59.8775 38.6375 59.8718 38.4862 59.8661 38.3349C59.8645 38.2826 59.8629 38.2304 59.8613 38.1765C59.8593 38.1258 59.8573 38.0752 59.8552 38.0229C59.8528 37.9532 59.8528 37.9532 59.8503 37.8821C59.8249 37.6763 59.7733 37.5318 59.6261 37.3846C59.3352 37.3105 59.1604 37.3401 58.8996 37.4884C58.7934 37.649 58.7807 37.7873 58.7744 37.9773C58.7724 38.0305 58.7704 38.0837 58.7683 38.1385C58.7667 38.1937 58.7651 38.2489 58.7634 38.3057C58.7604 38.3897 58.7604 38.3897 58.7574 38.4754C58.7525 38.6134 58.748 38.7514 58.744 38.8895C58.6412 38.8895 58.5385 38.8895 58.4326 38.8895C58.4326 38.2902 58.4326 37.6908 58.4326 37.0733C58.5182 37.0733 58.6039 37.0733 58.6921 37.0733C58.7092 37.1418 58.7263 37.2103 58.744 37.2808C58.7825 37.2477 58.821 37.2145 58.8607 37.1803C59.1644 36.9526 59.5414 36.9971 59.8824 37.1349Z" fill="white"/>
<path d="M53.7076 37.1349C53.8888 37.2942 53.9628 37.4493 53.9827 37.6921C53.9856 37.8731 53.9838 38.0534 53.98 38.2344C53.9789 38.3288 53.9789 38.3288 53.9779 38.4251C53.976 38.5799 53.9735 38.7347 53.9703 38.8895C53.8846 38.8895 53.799 38.8895 53.7108 38.8895C53.7098 38.8563 53.7087 38.8231 53.7077 38.7888C53.7027 38.6375 53.697 38.4862 53.6913 38.3349C53.6897 38.2826 53.6881 38.2304 53.6865 38.1765C53.6845 38.1258 53.6825 38.0752 53.6804 38.0229C53.678 37.9532 53.678 37.9532 53.6755 37.8821C53.6501 37.6763 53.5985 37.5318 53.4513 37.3846C53.1604 37.3105 52.9856 37.3401 52.7248 37.4884C52.6186 37.649 52.6059 37.7873 52.5996 37.9773C52.5976 38.0305 52.5956 38.0837 52.5935 38.1385C52.5919 38.1937 52.5903 38.2489 52.5886 38.3057C52.5856 38.3897 52.5856 38.3897 52.5825 38.4754C52.5777 38.6134 52.5732 38.7514 52.5692 38.8895C52.4664 38.8895 52.3637 38.8895 52.2578 38.8895C52.2578 38.2902 52.2578 37.6908 52.2578 37.0733C52.3434 37.0733 52.4291 37.0733 52.5173 37.0733C52.5344 37.1418 52.5515 37.2103 52.5692 37.2808C52.6077 37.2477 52.6462 37.2145 52.6859 37.1803C52.9896 36.9526 53.3666 36.9971 53.7076 37.1349Z" fill="white"/>
<path d="M44.107 37.1349C44.2882 37.2942 44.3622 37.4493 44.3821 37.6921C44.385 37.8731 44.3832 38.0534 44.3794 38.2344C44.3784 38.3288 44.3784 38.3288 44.3773 38.4251C44.3755 38.5799 44.3729 38.7347 44.3697 38.8895C44.2841 38.8895 44.1984 38.8895 44.1102 38.8895C44.1092 38.8563 44.1082 38.8231 44.1071 38.7888C44.1021 38.6375 44.0965 38.4862 44.0908 38.3349C44.0892 38.2826 44.0875 38.2304 44.0859 38.1765C44.0839 38.1258 44.0819 38.0752 44.0798 38.0229C44.0774 37.9532 44.0774 37.9532 44.0749 37.8821C44.0495 37.6763 43.998 37.5318 43.8508 37.3846C43.5598 37.3105 43.385 37.3401 43.1243 37.4884C43.018 37.649 43.0053 37.7873 42.999 37.9773C42.997 38.0305 42.995 38.0837 42.9929 38.1385C42.9913 38.1937 42.9897 38.2489 42.988 38.3057C42.985 38.3897 42.985 38.3897 42.982 38.4754C42.9771 38.6134 42.9726 38.7514 42.9686 38.8895C42.8658 38.8895 42.7631 38.8895 42.6572 38.8895C42.6572 38.2902 42.6572 37.6908 42.6572 37.0733C42.7428 37.0733 42.8285 37.0733 42.9167 37.0733C42.9338 37.1418 42.9509 37.2103 42.9686 37.2808C43.0071 37.2477 43.0456 37.2145 43.0853 37.1803C43.389 36.9526 43.766 36.9971 44.107 37.1349Z" fill="white"/>
<path d="M49.9222 37.1772C49.9222 37.3328 49.9222 37.3328 49.8703 37.4366C49.8093 37.4195 49.7483 37.4024 49.6855 37.3847C49.4149 37.3172 49.1534 37.2986 48.8844 37.3847C48.8844 37.5046 48.8844 37.6245 48.8844 37.748C48.9451 37.76 49.0057 37.7719 49.0682 37.7843C49.1486 37.8013 49.2289 37.8184 49.3092 37.8356C49.3492 37.8433 49.3891 37.851 49.4302 37.859C49.6982 37.9176 49.8512 37.9905 50.026 38.215C50.0558 38.3938 50.037 38.4969 49.9741 38.6658C49.7795 38.8908 49.5389 38.9335 49.2509 38.961C49.0154 38.9512 48.7836 38.892 48.573 38.7858C48.5388 38.7345 48.5045 38.6831 48.4692 38.6302C48.5206 38.5531 48.5206 38.5531 48.573 38.4745C48.6063 38.4857 48.6395 38.497 48.6738 38.5085C49.1245 38.6566 49.1245 38.6566 49.5817 38.5783C49.6084 38.5611 49.6352 38.544 49.6628 38.5264C49.6628 38.4407 49.6628 38.3551 49.6628 38.2669C49.6015 38.2506 49.5402 38.2343 49.4771 38.2174C49.3963 38.1951 49.3155 38.1726 49.2347 38.1502C49.1943 38.1395 49.154 38.1289 49.1124 38.1179C48.8841 38.0535 48.716 38.0016 48.573 37.7999C48.5287 37.6389 48.5343 37.495 48.573 37.3328C48.6807 37.1853 48.8162 37.102 48.9849 37.0312C49.3359 36.9993 49.5968 37.0532 49.9222 37.1772Z" fill="white"/>
<path d="M48.2616 37.1772C48.2616 37.3328 48.2616 37.3328 48.2097 37.4366C48.1487 37.4195 48.0877 37.4024 48.0248 37.3847C47.7543 37.3172 47.4928 37.2986 47.2237 37.3847C47.2237 37.5046 47.2237 37.6245 47.2237 37.748C47.2844 37.76 47.3451 37.7719 47.4076 37.7843C47.4879 37.8013 47.5683 37.8184 47.6486 37.8356C47.6885 37.8433 47.7284 37.851 47.7695 37.859C48.0376 37.9176 48.1905 37.9905 48.3654 38.215C48.3952 38.3938 48.3763 38.4969 48.3135 38.6658C48.1189 38.8908 47.8782 38.9335 47.5902 38.961C47.3548 38.9512 47.123 38.892 46.9124 38.7858C46.8781 38.7345 46.8439 38.6831 46.8086 38.6302C46.86 38.5531 46.86 38.5531 46.9124 38.4745C46.9456 38.4857 46.9789 38.497 47.0131 38.5085C47.4639 38.6566 47.4639 38.6566 47.921 38.5783C47.9478 38.5611 47.9746 38.544 48.0021 38.5264C48.0021 38.4407 48.0021 38.3551 48.0021 38.2669C47.9408 38.2506 47.8796 38.2343 47.8164 38.2174C47.7356 38.1951 47.6548 38.1726 47.574 38.1502C47.5337 38.1395 47.4933 38.1289 47.4518 38.1179C47.2235 38.0535 47.0554 38.0016 46.9124 37.7999C46.868 37.6389 46.8737 37.495 46.9124 37.3328C47.02 37.1853 47.1555 37.102 47.3243 37.0312C47.6752 36.9993 47.9362 37.0532 48.2616 37.1772Z" fill="white"/>
<path d="M41.2045 37.1772C41.2045 37.3328 41.2045 37.3328 41.1526 37.4366C41.0916 37.4195 41.0306 37.4024 40.9677 37.3847C40.6972 37.3172 40.4356 37.2986 40.1666 37.3847C40.1666 37.5046 40.1666 37.6245 40.1666 37.748C40.2273 37.76 40.2879 37.7719 40.3505 37.7843C40.4308 37.8013 40.5111 37.8184 40.5915 37.8356C40.6314 37.8433 40.6713 37.851 40.7124 37.859C40.9804 37.9176 41.1334 37.9905 41.3082 38.215C41.338 38.3938 41.3192 38.4969 41.2563 38.6658C41.0618 38.8908 40.8211 38.9335 40.5331 38.961C40.2976 38.9512 40.0658 38.892 39.8552 38.7858C39.821 38.7345 39.7868 38.6831 39.7515 38.6302C39.8028 38.5531 39.8028 38.5531 39.8552 38.4745C39.8885 38.4857 39.9217 38.497 39.956 38.5085C40.4067 38.6566 40.4067 38.6566 40.8639 38.5783C40.8907 38.5611 40.9174 38.544 40.945 38.5264C40.945 38.4407 40.945 38.3551 40.945 38.2669C40.8837 38.2506 40.8224 38.2343 40.7593 38.2174C40.6785 38.1951 40.5977 38.1726 40.5169 38.1502C40.4765 38.1395 40.4362 38.1289 40.3946 38.1179C40.1663 38.0535 39.9982 38.0016 39.8552 37.7999C39.8109 37.6389 39.8165 37.495 39.8552 37.3328C39.9629 37.1853 40.0984 37.102 40.2671 37.0312C40.6181 36.9993 40.8791 37.0532 41.2045 37.1772Z" fill="white"/>
<path d="M26 36.4506C26.1449 36.4361 26.1449 36.4361 26.3114 36.4506C26.4062 36.5482 26.4062 36.5482 26.4839 36.6835C26.5126 36.732 26.5413 36.7805 26.5709 36.8304C26.5998 36.8817 26.6286 36.9329 26.6584 36.9858C26.7168 37.0862 26.7754 37.1865 26.8341 37.2868C26.8723 37.354 26.8723 37.354 26.9113 37.4226C26.9796 37.5303 27.0476 37.6107 27.1416 37.696C27.1615 37.662 27.1814 37.628 27.2019 37.5929C27.2919 37.4391 27.3822 37.2854 27.4725 37.1317C27.5038 37.0781 27.5351 37.0245 27.5673 36.9693C27.5974 36.9182 27.6275 36.867 27.6585 36.8143C27.6863 36.767 27.714 36.7197 27.7425 36.671C27.8162 36.5544 27.8162 36.5544 27.92 36.4506C28.0822 36.4441 28.0822 36.4441 28.2314 36.4506C28.0892 36.7281 27.9423 36.9931 27.7625 37.2479C27.3771 37.8025 27.2001 38.2094 27.2454 38.8896C27.1427 38.8896 27.0399 38.8896 26.9341 38.8896C26.9438 38.8193 26.9438 38.8193 26.9537 38.7477C27.0084 37.9438 26.5073 37.3237 26.0802 36.6856C26 36.5544 26 36.5544 26 36.4506Z" fill="white"/>
<path d="M68.564 18.2515C69.4157 18.2515 69.4157 18.2515 69.6595 18.4789C69.7394 18.6389 69.7377 18.7453 69.7134 18.9219C69.6432 19.0333 69.5667 19.1142 69.4739 19.2093C69.4912 19.2358 69.5085 19.2624 69.5263 19.2897C69.5485 19.3244 69.5707 19.3591 69.5936 19.3949C69.627 19.4465 69.627 19.4465 69.661 19.4993C69.7134 19.5924 69.7134 19.5924 69.7134 19.6882C69.6022 19.7 69.6022 19.7 69.4739 19.6882C69.3994 19.6061 69.3994 19.6061 69.3362 19.4996C69.2405 19.3533 69.2405 19.3533 69.0938 19.269C68.9918 19.254 68.9918 19.254 68.8513 19.2572C68.8513 19.3994 68.8513 19.5417 68.8513 19.6882C68.7565 19.6882 68.6617 19.6882 68.564 19.6882C68.564 19.2141 68.564 18.74 68.564 18.2515ZM68.8513 18.4909C68.8513 18.6648 68.8513 18.8386 68.8513 19.0177C69.1115 19.0353 69.1115 19.0353 69.3542 18.9609C69.4353 18.8768 69.4353 18.8768 69.45 18.7543C69.4353 18.6319 69.4353 18.6319 69.3542 18.5478C69.1807 18.4654 69.0424 18.4814 68.8513 18.4909Z" fill="white"/>
<path d="M68.2399 37.0731C68.3802 37.0552 68.3802 37.0552 68.5512 37.0731C68.6802 37.1979 68.6802 37.1979 68.7977 37.3585C68.8694 37.455 68.9425 37.5505 69.0183 37.6439C69.0525 37.6439 69.0868 37.6439 69.1221 37.6439C69.1881 37.5503 69.2515 37.4548 69.3134 37.3585C69.5055 37.0842 69.5055 37.0842 69.6452 37.0352C69.7448 37.0374 69.7448 37.0374 69.9004 37.0731C69.711 37.3694 69.5122 37.641 69.2777 37.9033C69.3671 38.1106 69.5055 38.2789 69.6442 38.4547C69.8942 38.7731 69.8942 38.7731 69.9523 38.8893C69.7867 38.9067 69.7867 38.9067 69.5891 38.8893C69.4514 38.7681 69.4514 38.7681 69.3329 38.6104C69.2928 38.5586 69.2527 38.5068 69.2114 38.4535C69.1221 38.3185 69.1221 38.3185 69.1221 38.2147C68.9605 38.3667 68.8359 38.5126 68.7134 38.6979C68.6356 38.806 68.6356 38.806 68.5512 38.8893C68.3502 38.9152 68.3502 38.9152 68.188 38.8893C68.2332 38.82 68.2787 38.7508 68.3242 38.6817C68.3522 38.6392 68.3801 38.5966 68.4089 38.5528C68.5177 38.3958 68.6382 38.2508 68.7637 38.1069C68.8239 38.0059 68.8239 38.0059 68.7819 37.8837C68.6929 37.7223 68.587 37.5923 68.4669 37.4525C68.2399 37.1879 68.2399 37.1879 68.2399 37.0731Z" fill="white"/>
<path d="M33.7843 37.0215C33.7843 37.1242 33.7843 37.227 33.7843 37.3328C33.7286 37.3371 33.673 37.3414 33.6156 37.3458C33.4051 37.3879 33.3435 37.4273 33.2135 37.5923C33.1482 37.7229 33.1508 37.8213 33.1452 37.9673C33.143 38.0208 33.1408 38.0743 33.1386 38.1295C33.1355 38.2136 33.1355 38.2136 33.1324 38.2993C33.1302 38.3558 33.1279 38.4123 33.1256 38.4704C33.1201 38.6101 33.1148 38.7499 33.1097 38.8896C33.0069 38.8896 32.9042 38.8896 32.7983 38.8896C32.7983 38.2903 32.7983 37.6909 32.7983 37.0734C32.884 37.0734 32.9696 37.0734 33.0578 37.0734C33.0749 37.1419 33.0921 37.2104 33.1097 37.2809C33.1482 37.2478 33.1868 37.2146 33.2265 37.1804C33.429 37.0285 33.5321 37.0215 33.7843 37.0215Z" fill="white"/>
<path d="M51.3232 37.0732C51.426 37.0732 51.5287 37.0732 51.6346 37.0732C51.6346 37.6726 51.6346 38.272 51.6346 38.8895C51.5319 38.8895 51.4291 38.8895 51.3232 38.8895C51.3232 38.2901 51.3232 37.6908 51.3232 37.0732Z" fill="white"/>
<path d="M41.7231 37.0732C41.8259 37.0732 41.9286 37.0732 42.0345 37.0732C42.0345 37.6726 42.0345 38.272 42.0345 38.8895C41.9318 38.8895 41.829 38.8895 41.7231 38.8895C41.7231 38.2901 41.7231 37.6908 41.7231 37.0732Z" fill="white"/>
<path d="M52.8077 36.4023C52.9334 36.4203 52.9334 36.4203 53.0472 36.4502C53.0771 36.564 53.0771 36.564 53.095 36.6897C53.0634 36.7213 53.0318 36.7529 52.9993 36.7855C52.8735 36.7675 52.8735 36.7675 52.7598 36.7376C52.7299 36.6238 52.7299 36.6238 52.7119 36.4981C52.7435 36.4665 52.7751 36.4349 52.8077 36.4023Z" fill="white"/>
<path d="M43.9483 36.4023C44.074 36.4203 44.074 36.4203 44.1878 36.4502C44.2177 36.564 44.2177 36.564 44.2357 36.6897C44.2041 36.7213 44.1725 36.7529 44.1399 36.7855C44.0142 36.7675 44.0142 36.7675 43.9004 36.7376C43.8705 36.6238 43.8705 36.6238 43.8525 36.4981C43.8841 36.4665 43.9158 36.4349 43.9483 36.4023Z" fill="white"/>
</svg>
